<svg width="24" height="24" viewBox="0 0 24 24" fill="none" xmlns="http://www.w3.org/2000/svg">
<path d="M11.6 19.2C15.7974 19.2 19.2 15.7974 19.2 11.6C19.2 7.40264 15.7974 4 11.6 4C7.40264 4 4 7.40264 4 11.6C4 15.7974 7.40264 19.2 11.6 19.2Z" fill="#495D72"/>
<path d="M19.4399 20C19.2959 20 19.1519 19.944 19.0479 19.84L17.5599 18.352C17.3439 18.136 17.3439 17.784 17.5599 17.56C17.7759 17.344 18.1279 17.344 18.3519 17.56L19.8399 19.048C20.0559 19.264 20.0559 19.616 19.8399 19.84C19.7279 19.944 19.5839 20 19.4399 20Z" fill="#495D72"/>
</svg>
